<svg width="66" height="61" viewBox="0 0 66 61" fill="none" xmlns="http://www.w3.org/2000/svg">
<path d="M0.184 0.903996H21.112C27.064 0.903996 30.04 3.72 30.04 9.352V52.552C30.04 58.184 27.064 61 21.112 61H0.184V0.903996ZM21.304 51.4V10.504C21.304 9.352 21.112 8.616 20.728 8.296C20.344 7.912 19.576 7.72 18.424 7.72H8.92V54.184H18.424C19.576 54.184 20.344 54.024 20.728 53.704C21.112 53.32 21.304 52.552 21.304 51.4ZM56.8345 51.208V36.52C56.8345 35.368 56.6425 34.632 56.2585 34.312C55.9385 33.928 55.2025 33.736 54.0505 33.736H46.9465C41.1225 33.736 38.2105 30.888 38.2105 25.192V9.352C38.2105 3.72 41.1865 0.903996 47.1385 0.903996H56.5465C62.4985 0.903996 65.4745 3.72 65.4745 9.352V18.184H56.7385V10.696C56.7385 9.54399 56.5465 8.80799 56.1625 8.488C55.7785 8.104 55.0105 7.912 53.8585 7.912H49.8265C48.6745 7.912 47.9065 8.104 47.5225 8.488C47.1385 8.80799 46.9465 9.54399 46.9465 10.696V24.04C46.9465 25.192 47.1385 25.96 47.5225 26.344C47.9065 26.664 48.6745 26.824 49.8265 26.824H56.8345C62.7225 26.824 65.6665 29.64 65.6665 35.272V52.552C65.6665 58.184 62.6585 61 56.6425 61H47.3305C41.3785 61 38.4025 58.184 38.4025 52.552V43.72H47.1385V51.208C47.1385 52.36 47.3305 53.128 47.7145 53.512C48.0985 53.832 48.8665 53.992 50.0185 53.992H54.0505C55.2025 53.992 55.9385 53.832 56.2585 53.512C56.6425 53.128 56.8345 52.36 56.8345 51.208Z" fill="white"/>
</svg>
